<?xml version="1.0" standalone="no"?>
<!DOCTYPE svg PUBLIC "-//W3C//DTD SVG 20010904//EN"
 "http://www.w3.org/TR/2001/REC-SVG-20010904/DTD/svg10.dtd">
<svg version="1.0" xmlns="http://www.w3.org/2000/svg"
 width="1024.000000pt" height="1024.000000pt" viewBox="0 0 1024.000000 1024.000000"
 preserveAspectRatio="xMidYMid meet">

<g transform="translate(0.000000,1024.000000) scale(0.100000,-0.100000)"
fill="#000000" stroke="none">
<path d="M3630 7573 c-226 -34 -364 -75 -522 -154 -180 -90 -298 -175 -446
-322 -262 -258 -426 -582 -483 -952 -7 -44 -12 -161 -11 -260 1 -267 41 -468
137 -693 219 -510 670 -886 1202 -1002 164 -36 332 -40 1613 -40 1166 0 1247
1 1279 18 72 36 72 36 71 346 0 302 -3 318 -57 353 -25 17 -111 18 -1393 23
-751 3 -1376 9 -1390 14 -14 4 -54 17 -90 28 -333 105 -586 408 -645 773 -76
463 153 893 572 1078 34 15 97 37 140 50 l78 22 1790 5 1790 5 130 190 c72
105 181 263 243 353 62 89 112 164 112 167 0 6 -4082 4 -4120 -2z"/>
<path d="M7774 7289 c-49 -14 -119 -82 -144 -141 -54 -126 31 -283 174 -319
59 -15 113 -1 177 46 62 45 89 101 89 186 -1 166 -140 273 -296 228z m118 -39
c49 -14 94 -53 119 -103 31 -60 24 -160 -15 -212 -85 -111 -246 -92 -310 36
-41 82 -32 156 27 224 50 57 107 75 179 55z"/>
<path d="M7770 7076 c0 -112 2 -124 17 -122 14 2 17 11 14 44 -2 41 -2 42 31
42 28 0 37 -6 58 -40 19 -31 31 -40 52 -40 16 0 28 2 28 4 0 2 -14 21 -31 42
-29 37 -30 39 -10 47 29 14 44 57 32 91 -14 35 -64 56 -136 56 l-55 0 0 -124z
m120 71 c17 -8 25 -21 25 -37 0 -23 -4 -25 -57 -28 l-58 -3 0 41 c0 39 1 40
33 40 17 0 43 -6 57 -13z"/>
<path d="M3745 6166 c-16 -7 -41 -26 -55 -41 l-25 -27 -3 -284 c-3 -273 -2
-287 18 -319 43 -70 -55 -65 1398 -65 1402 0 1359 1 1505 -49 258 -90 479
-296 587 -550 62 -144 75 -214 75 -396 -1 -134 -5 -174 -24 -245 -46 -171
-131 -319 -247 -431 -114 -108 -223 -171 -385 -221 l-74 -23 -2014 -5 -2014
-5 -58 -90 c-162 -255 -399 -635 -399 -640 0 -3 1011 -4 2248 -3 2135 3 2252
4 2342 22 503 97 925 410 1168 866 165 309 222 764 141 1134 -78 363 -237 648
-505 906 -226 217 -537 384 -827 444 -156 32 -304 36 -1562 36 -1028 -1 -1266
-3 -1290 -14z"/>
</g>
</svg>
